<svg width="24" height="24" viewBox="0 0 24 24" fill="none" xmlns="http://www.w3.org/2000/svg">
<path fill-rule="evenodd" clip-rule="evenodd" d="M11.6677 22.5047C11.7784 22.5138 11.8892 22.5185 12 22.5185C12.1107 22.5185 12.2215 22.5138 12.3323 22.5047C12.4431 22.4954 12.5446 22.4723 12.6369 22.4354C15.0554 21.6415 16.9939 20.1739 18.4522 18.0323C19.9107 15.8908 20.64 13.5554 20.64 11.0261V6.04153C20.64 5.62264 20.5247 5.24557 20.2939 4.91031C20.0631 4.57523 19.7539 4.33385 19.3661 4.18616L12.72 1.63846C12.48 1.54616 12.24 1.5 12 1.5C11.76 1.5 11.52 1.54616 11.28 1.63846L4.63382 4.18616C4.24613 4.33385 3.9369 4.57523 3.70613 4.91031C3.47536 5.24557 3.35999 5.62264 3.35999 6.04153V11.0261C3.35999 13.5554 4.08922 15.8908 5.54767 18.0323C7.00613 20.1739 8.9446 21.6415 11.3631 22.4354C11.4554 22.4723 11.5569 22.4954 11.6677 22.5047ZM16.7631 16.9801C15.5077 18.7662 13.92 19.9569 12 20.5524C10.08 19.9569 8.49228 18.7662 7.2369 16.9801C5.98151 15.1939 5.35383 13.2092 5.35383 11.0261V6.04153L12 3.49385L18.6461 6.04153V11.0261C18.6461 13.2092 18.0184 15.1939 16.7631 16.9801ZM9.61176 15.547L12.0012 14.1191L14.3906 15.547C14.4975 15.6053 14.6019 15.6296 14.7039 15.6198C14.8058 15.6101 14.8957 15.5761 14.9734 15.5179C15.0511 15.4596 15.1094 15.3795 15.1483 15.2775C15.1871 15.1755 15.192 15.071 15.1627 14.9641L14.5363 12.2979L16.6343 10.5059C16.7217 10.4281 16.7776 10.3407 16.8018 10.2436C16.8263 10.1465 16.8238 10.0493 16.7947 9.9522C16.7654 9.85506 16.7121 9.77252 16.6343 9.70451C16.5566 9.63652 16.4596 9.59768 16.3429 9.58796L13.5747 9.35484L12.482 6.80514C12.4334 6.69831 12.3654 6.61817 12.278 6.56475C12.1906 6.51133 12.0983 6.48462 12.0012 6.48462C11.904 6.48462 11.8118 6.51133 11.7244 6.56475C11.6369 6.61817 11.5689 6.69831 11.5204 6.80514L10.4277 9.34027L7.65942 9.58796C7.54286 9.59768 7.44573 9.6341 7.36802 9.69723C7.29032 9.76037 7.23689 9.84051 7.20776 9.93763C7.17862 10.0348 7.17377 10.1343 7.19319 10.2363C7.21261 10.3383 7.26603 10.4281 7.35344 10.5059L9.46606 12.2979L8.83956 14.9641C8.81041 15.071 8.81528 15.1755 8.85413 15.2775C8.89298 15.3795 8.95126 15.4596 9.02897 15.5179C9.10667 15.5761 9.19652 15.6101 9.29851 15.6198C9.40049 15.6296 9.5049 15.6053 9.61176 15.547Z" fill="currentColor"/>
</svg>
